<mxfile host="app.diagrams.net" modified="2022-04-29T07:54:13.832Z" agent="5.0 (Windows NT 10.0; Win64; x64) AppleWebKit/537.36 (KHTML, like Gecko) Chrome/100.0.4896.127 Safari/537.36" etag="quFMv1gypHzdGvKYvSSn" version="17.4.6" type="github">
  <diagram id="_qadQSwQZriIq9_SNwoK" name="Page-1">
    <mxGraphModel dx="2377" dy="859" grid="1" gridSize="10" guides="1" tooltips="1" connect="1" arrows="1" fold="1" page="1" pageScale="1" pageWidth="827" pageHeight="1169" math="0" shadow="0">
      <root>
        <mxCell id="0" />
        <mxCell id="1" parent="0" />
        <mxCell id="ZXj9wXbo5RV8a7_xZoY3-3" style="edgeStyle=orthogonalEdgeStyle;rounded=0;orthogonalLoop=1;jettySize=auto;html=1;exitX=0.5;exitY=1;exitDx=0;exitDy=0;entryX=0.5;entryY=0;entryDx=0;entryDy=0;" parent="1" source="ZXj9wXbo5RV8a7_xZoY3-1" edge="1">
          <mxGeometry relative="1" as="geometry">
            <mxPoint x="200" y="140" as="targetPoint" />
          </mxGeometry>
        </mxCell>
        <mxCell id="ZXj9wXbo5RV8a7_xZoY3-1" value="下单" style="rounded=0;whiteSpace=wrap;html=1;" parent="1" vertex="1">
          <mxGeometry x="140" y="50" width="120" height="60" as="geometry" />
        </mxCell>
        <mxCell id="fs5cX9v2H0MNZOyjVege-8" value="否" style="edgeStyle=orthogonalEdgeStyle;rounded=0;orthogonalLoop=1;jettySize=auto;html=1;exitX=1;exitY=0.5;exitDx=0;exitDy=0;" edge="1" parent="1" source="fs5cX9v2H0MNZOyjVege-1" target="fs5cX9v2H0MNZOyjVege-6">
          <mxGeometry x="0.5455" relative="1" as="geometry">
            <mxPoint as="offset" />
          </mxGeometry>
        </mxCell>
        <mxCell id="fs5cX9v2H0MNZOyjVege-60" style="edgeStyle=orthogonalEdgeStyle;rounded=0;orthogonalLoop=1;jettySize=auto;html=1;exitX=0.5;exitY=1;exitDx=0;exitDy=0;entryX=0.5;entryY=0;entryDx=0;entryDy=0;" edge="1" parent="1" source="fs5cX9v2H0MNZOyjVege-3" target="fs5cX9v2H0MNZOyjVege-57">
          <mxGeometry relative="1" as="geometry" />
        </mxCell>
        <mxCell id="fs5cX9v2H0MNZOyjVege-3" value="" style="rounded=0;whiteSpace=wrap;html=1;" vertex="1" parent="1">
          <mxGeometry x="-390" y="350" width="530" height="690" as="geometry" />
        </mxCell>
        <mxCell id="fs5cX9v2H0MNZOyjVege-48" style="edgeStyle=orthogonalEdgeStyle;rounded=0;orthogonalLoop=1;jettySize=auto;html=1;entryX=0.5;entryY=0;entryDx=0;entryDy=0;" edge="1" parent="1" source="fs5cX9v2H0MNZOyjVege-1" target="fs5cX9v2H0MNZOyjVege-47">
          <mxGeometry relative="1" as="geometry" />
        </mxCell>
        <mxCell id="fs5cX9v2H0MNZOyjVege-1" value="orderCode是否为空" style="rhombus;whiteSpace=wrap;html=1;" vertex="1" parent="1">
          <mxGeometry x="120" y="140" width="160" height="80" as="geometry" />
        </mxCell>
        <mxCell id="fs5cX9v2H0MNZOyjVege-12" style="edgeStyle=orthogonalEdgeStyle;rounded=0;orthogonalLoop=1;jettySize=auto;html=1;exitX=0.5;exitY=1;exitDx=0;exitDy=0;" edge="1" parent="1" source="fs5cX9v2H0MNZOyjVege-6">
          <mxGeometry relative="1" as="geometry">
            <mxPoint x="550" y="380" as="targetPoint" />
          </mxGeometry>
        </mxCell>
        <mxCell id="fs5cX9v2H0MNZOyjVege-6" value="修改订单信息" style="rounded=0;whiteSpace=wrap;html=1;" vertex="1" parent="1">
          <mxGeometry x="490" y="280" width="120" height="60" as="geometry" />
        </mxCell>
        <mxCell id="fs5cX9v2H0MNZOyjVege-14" value="是" style="edgeStyle=orthogonalEdgeStyle;rounded=0;orthogonalLoop=1;jettySize=auto;html=1;exitX=0.5;exitY=1;exitDx=0;exitDy=0;entryX=0.5;entryY=0;entryDx=0;entryDy=0;" edge="1" parent="1" source="fs5cX9v2H0MNZOyjVege-13" target="fs5cX9v2H0MNZOyjVege-15">
          <mxGeometry relative="1" as="geometry">
            <mxPoint x="550" y="490" as="targetPoint" />
          </mxGeometry>
        </mxCell>
        <mxCell id="fs5cX9v2H0MNZOyjVege-32" value="否" style="edgeStyle=orthogonalEdgeStyle;rounded=0;orthogonalLoop=1;jettySize=auto;html=1;exitX=1;exitY=0.5;exitDx=0;exitDy=0;entryX=0.5;entryY=0;entryDx=0;entryDy=0;" edge="1" parent="1" source="fs5cX9v2H0MNZOyjVege-13" target="fs5cX9v2H0MNZOyjVege-33">
          <mxGeometry relative="1" as="geometry">
            <mxPoint x="710" y="480" as="targetPoint" />
          </mxGeometry>
        </mxCell>
        <mxCell id="fs5cX9v2H0MNZOyjVege-13" value="旧订单优惠券信息不为空，并且（当前订单优惠券为空或当前订单优惠券不等于旧订单优惠券）" style="rhombus;whiteSpace=wrap;html=1;" vertex="1" parent="1">
          <mxGeometry x="440" y="360" width="220" height="110" as="geometry" />
        </mxCell>
        <mxCell id="fs5cX9v2H0MNZOyjVege-15" value="收回订单的优惠券" style="rounded=0;whiteSpace=wrap;html=1;" vertex="1" parent="1">
          <mxGeometry x="490" y="500" width="120" height="60" as="geometry" />
        </mxCell>
        <mxCell id="fs5cX9v2H0MNZOyjVege-20" value="发放优惠券逻辑" style="text;html=1;align=center;verticalAlign=middle;resizable=0;points=[];autosize=1;strokeColor=none;fillColor=#FFF2CC;" vertex="1" parent="1">
          <mxGeometry x="-180" y="370" width="100" height="20" as="geometry" />
        </mxCell>
        <mxCell id="fs5cX9v2H0MNZOyjVege-26" value="" style="edgeStyle=orthogonalEdgeStyle;rounded=0;orthogonalLoop=1;jettySize=auto;html=1;" edge="1" parent="1" source="fs5cX9v2H0MNZOyjVege-22" target="fs5cX9v2H0MNZOyjVege-25">
          <mxGeometry relative="1" as="geometry" />
        </mxCell>
        <mxCell id="fs5cX9v2H0MNZOyjVege-29" value="" style="edgeStyle=orthogonalEdgeStyle;rounded=0;orthogonalLoop=1;jettySize=auto;html=1;" edge="1" parent="1" source="fs5cX9v2H0MNZOyjVege-22" target="fs5cX9v2H0MNZOyjVege-28">
          <mxGeometry relative="1" as="geometry" />
        </mxCell>
        <mxCell id="fs5cX9v2H0MNZOyjVege-22" value="判断卡券是否可以领取" style="rhombus;whiteSpace=wrap;html=1;" vertex="1" parent="1">
          <mxGeometry x="-76.25" y="410" width="142.5" height="80" as="geometry" />
        </mxCell>
        <mxCell id="fs5cX9v2H0MNZOyjVege-23" value="收回订单的优惠券" style="rounded=0;whiteSpace=wrap;html=1;" vertex="1" parent="1">
          <mxGeometry x="190" y="350" width="120" height="60" as="geometry" />
        </mxCell>
        <mxCell id="fs5cX9v2H0MNZOyjVege-25" value="抛出异常" style="rounded=0;whiteSpace=wrap;html=1;" vertex="1" parent="1">
          <mxGeometry x="-180" y="435" width="70" height="30" as="geometry" />
        </mxCell>
        <mxCell id="fs5cX9v2H0MNZOyjVege-31" value="" style="edgeStyle=orthogonalEdgeStyle;rounded=0;orthogonalLoop=1;jettySize=auto;html=1;" edge="1" parent="1" source="fs5cX9v2H0MNZOyjVege-28" target="fs5cX9v2H0MNZOyjVege-30">
          <mxGeometry relative="1" as="geometry" />
        </mxCell>
        <mxCell id="fs5cX9v2H0MNZOyjVege-28" value="客户不存在创建客户，客户存在更新其姓名" style="whiteSpace=wrap;html=1;" vertex="1" parent="1">
          <mxGeometry x="-65" y="510" width="120" height="60" as="geometry" />
        </mxCell>
        <mxCell id="fs5cX9v2H0MNZOyjVege-36" value="" style="edgeStyle=orthogonalEdgeStyle;rounded=0;orthogonalLoop=1;jettySize=auto;html=1;" edge="1" parent="1" source="fs5cX9v2H0MNZOyjVege-30" target="fs5cX9v2H0MNZOyjVege-35">
          <mxGeometry relative="1" as="geometry" />
        </mxCell>
        <mxCell id="fs5cX9v2H0MNZOyjVege-30" value="生成客户优惠券，往customer_coupon表中插入数据" style="whiteSpace=wrap;html=1;" vertex="1" parent="1">
          <mxGeometry x="-65" y="590" width="120" height="60" as="geometry" />
        </mxCell>
        <mxCell id="fs5cX9v2H0MNZOyjVege-33" value="无" style="rounded=0;whiteSpace=wrap;html=1;" vertex="1" parent="1">
          <mxGeometry x="650" y="500" width="120" height="60" as="geometry" />
        </mxCell>
        <mxCell id="fs5cX9v2H0MNZOyjVege-38" value="" style="edgeStyle=orthogonalEdgeStyle;rounded=0;orthogonalLoop=1;jettySize=auto;html=1;" edge="1" parent="1" source="fs5cX9v2H0MNZOyjVege-35" target="fs5cX9v2H0MNZOyjVege-37">
          <mxGeometry relative="1" as="geometry" />
        </mxCell>
        <mxCell id="fs5cX9v2H0MNZOyjVege-35" value="客户首次在4s店下单，往dj_car_life_merchant_customer_link表中插入数据，添加客户和园区点、客户和4s店的关联关系" style="whiteSpace=wrap;html=1;" vertex="1" parent="1">
          <mxGeometry x="-103.12" y="685" width="196.25" height="80" as="geometry" />
        </mxCell>
        <mxCell id="fs5cX9v2H0MNZOyjVege-40" value="" style="edgeStyle=orthogonalEdgeStyle;rounded=0;orthogonalLoop=1;jettySize=auto;html=1;" edge="1" parent="1" source="fs5cX9v2H0MNZOyjVege-37" target="fs5cX9v2H0MNZOyjVege-39">
          <mxGeometry relative="1" as="geometry" />
        </mxCell>
        <mxCell id="fs5cX9v2H0MNZOyjVege-37" value="如果是首次下单，更新订单日报表的客户数量加1" style="whiteSpace=wrap;html=1;" vertex="1" parent="1">
          <mxGeometry x="-330" y="695" width="120" height="60" as="geometry" />
        </mxCell>
        <mxCell id="fs5cX9v2H0MNZOyjVege-42" value="" style="edgeStyle=orthogonalEdgeStyle;rounded=0;orthogonalLoop=1;jettySize=auto;html=1;" edge="1" parent="1" source="fs5cX9v2H0MNZOyjVege-39" target="fs5cX9v2H0MNZOyjVege-41">
          <mxGeometry relative="1" as="geometry" />
        </mxCell>
        <mxCell id="fs5cX9v2H0MNZOyjVege-39" value="加入待邀约，往dj_car_life_order_day_report表中插入数据，邀约状态为待邀约、到店状态为未到店&lt;br&gt;&lt;br&gt;&lt;span&gt;&lt;/span&gt;" style="whiteSpace=wrap;html=1;" vertex="1" parent="1">
          <mxGeometry x="-357.5" y="780" width="175" height="85" as="geometry" />
        </mxCell>
        <mxCell id="fs5cX9v2H0MNZOyjVege-44" value="" style="edgeStyle=orthogonalEdgeStyle;rounded=0;orthogonalLoop=1;jettySize=auto;html=1;" edge="1" parent="1" source="fs5cX9v2H0MNZOyjVege-41" target="fs5cX9v2H0MNZOyjVege-43">
          <mxGeometry relative="1" as="geometry" />
        </mxCell>
        <mxCell id="fs5cX9v2H0MNZOyjVege-41" value="添加跟进记录，往dj_car_life_customer_invite_follow_record表中添加跟进记录，事件状态为&quot;车主领券&quot;" style="whiteSpace=wrap;html=1;" vertex="1" parent="1">
          <mxGeometry x="-110" y="783.75" width="206.25" height="77.5" as="geometry" />
        </mxCell>
        <mxCell id="fs5cX9v2H0MNZOyjVege-46" value="" style="edgeStyle=orthogonalEdgeStyle;rounded=0;orthogonalLoop=1;jettySize=auto;html=1;" edge="1" parent="1" source="fs5cX9v2H0MNZOyjVege-43" target="fs5cX9v2H0MNZOyjVege-45">
          <mxGeometry relative="1" as="geometry" />
        </mxCell>
        <mxCell id="fs5cX9v2H0MNZOyjVege-43" value="更新商户优惠券表信息，dj_car_life_merchant_coupon表已领取数量加1" style="whiteSpace=wrap;html=1;" vertex="1" parent="1">
          <mxGeometry x="-80" y="890" width="146.25" height="65" as="geometry" />
        </mxCell>
        <mxCell id="fs5cX9v2H0MNZOyjVege-45" value="如果当天已有记录，更新发券数量；否则往优惠券日报表dj_car_life_coupon_day_report中插入数据" style="whiteSpace=wrap;html=1;" vertex="1" parent="1">
          <mxGeometry x="-370" y="878.12" width="200" height="88.75" as="geometry" />
        </mxCell>
        <mxCell id="fs5cX9v2H0MNZOyjVege-50" value="是" style="edgeStyle=orthogonalEdgeStyle;rounded=0;orthogonalLoop=1;jettySize=auto;html=1;exitX=0.5;exitY=1;exitDx=0;exitDy=0;entryX=0.523;entryY=0;entryDx=0;entryDy=0;entryPerimeter=0;" edge="1" parent="1" source="fs5cX9v2H0MNZOyjVege-47" target="fs5cX9v2H0MNZOyjVege-3">
          <mxGeometry relative="1" as="geometry">
            <Array as="points">
              <mxPoint x="-111" y="325" />
              <mxPoint x="-113" y="325" />
            </Array>
          </mxGeometry>
        </mxCell>
        <mxCell id="fs5cX9v2H0MNZOyjVege-51" style="edgeStyle=orthogonalEdgeStyle;rounded=0;orthogonalLoop=1;jettySize=auto;html=1;exitX=0;exitY=0.5;exitDx=0;exitDy=0;" edge="1" parent="1" source="fs5cX9v2H0MNZOyjVege-47">
          <mxGeometry relative="1" as="geometry">
            <mxPoint x="-510" y="330" as="targetPoint" />
          </mxGeometry>
        </mxCell>
        <mxCell id="fs5cX9v2H0MNZOyjVege-47" value="参数merchantCouponId不为空？" style="rhombus;whiteSpace=wrap;html=1;" vertex="1" parent="1">
          <mxGeometry x="-182.5" y="220" width="142.5" height="80" as="geometry" />
        </mxCell>
        <mxCell id="fs5cX9v2H0MNZOyjVege-54" style="edgeStyle=orthogonalEdgeStyle;rounded=0;orthogonalLoop=1;jettySize=auto;html=1;exitX=0.5;exitY=1;exitDx=0;exitDy=0;" edge="1" parent="1" source="fs5cX9v2H0MNZOyjVege-53">
          <mxGeometry relative="1" as="geometry">
            <mxPoint x="-510" y="470" as="targetPoint" />
          </mxGeometry>
        </mxCell>
        <mxCell id="fs5cX9v2H0MNZOyjVege-53" value="参数CustomerCouponId不为空？" style="rhombus;whiteSpace=wrap;html=1;" vertex="1" parent="1">
          <mxGeometry x="-600" y="330" width="180" height="90" as="geometry" />
        </mxCell>
        <mxCell id="fs5cX9v2H0MNZOyjVege-59" style="edgeStyle=orthogonalEdgeStyle;rounded=0;orthogonalLoop=1;jettySize=auto;html=1;exitX=0.5;exitY=1;exitDx=0;exitDy=0;entryX=0;entryY=0.5;entryDx=0;entryDy=0;" edge="1" parent="1" source="fs5cX9v2H0MNZOyjVege-55" target="fs5cX9v2H0MNZOyjVege-57">
          <mxGeometry relative="1" as="geometry" />
        </mxCell>
        <mxCell id="fs5cX9v2H0MNZOyjVege-55" value="查询客户优惠券信息。判断关联的商户是否和当前商户一致，如果不是则抛出异常" style="rounded=0;whiteSpace=wrap;html=1;fillColor=#FFFFFF;" vertex="1" parent="1">
          <mxGeometry x="-590" y="470" width="147.5" height="70" as="geometry" />
        </mxCell>
        <mxCell id="fs5cX9v2H0MNZOyjVege-62" value="" style="edgeStyle=orthogonalEdgeStyle;rounded=0;orthogonalLoop=1;jettySize=auto;html=1;" edge="1" parent="1" source="fs5cX9v2H0MNZOyjVege-57" target="fs5cX9v2H0MNZOyjVege-61">
          <mxGeometry relative="1" as="geometry" />
        </mxCell>
        <mxCell id="fs5cX9v2H0MNZOyjVege-57" value="根据商户号、渠道类型查询4S店主营车品牌LOGO" style="rounded=0;whiteSpace=wrap;html=1;fillColor=#FFFFFF;" vertex="1" parent="1">
          <mxGeometry x="-185" y="1120" width="120" height="60" as="geometry" />
        </mxCell>
        <mxCell id="fs5cX9v2H0MNZOyjVege-64" value="" style="edgeStyle=orthogonalEdgeStyle;rounded=0;orthogonalLoop=1;jettySize=auto;html=1;" edge="1" parent="1" source="fs5cX9v2H0MNZOyjVege-61" target="fs5cX9v2H0MNZOyjVege-63">
          <mxGeometry relative="1" as="geometry" />
        </mxCell>
        <mxCell id="fs5cX9v2H0MNZOyjVege-61" value="设置订单状态为”待跟进“&lt;br&gt;设置订单操作状态为”待确定“&lt;br&gt;设置订单施工标识为”未施工“" style="whiteSpace=wrap;html=1;fillColor=#FFFFFF;rounded=0;" vertex="1" parent="1">
          <mxGeometry x="-211.25" y="1220" width="172.5" height="80" as="geometry" />
        </mxCell>
        <mxCell id="fs5cX9v2H0MNZOyjVege-66" value="" style="edgeStyle=orthogonalEdgeStyle;rounded=0;orthogonalLoop=1;jettySize=auto;html=1;" edge="1" parent="1" source="fs5cX9v2H0MNZOyjVege-63" target="fs5cX9v2H0MNZOyjVege-65">
          <mxGeometry relative="1" as="geometry" />
        </mxCell>
        <mxCell id="fs5cX9v2H0MNZOyjVege-63" value="保存客户信息，如果没有客户信息，插入一条，否则更新客户信息" style="whiteSpace=wrap;html=1;fillColor=#FFFFFF;rounded=0;" vertex="1" parent="1">
          <mxGeometry x="-213.13" y="1340" width="176.25" height="60" as="geometry" />
        </mxCell>
        <mxCell id="fs5cX9v2H0MNZOyjVege-76" style="edgeStyle=orthogonalEdgeStyle;rounded=0;orthogonalLoop=1;jettySize=auto;html=1;exitX=0.5;exitY=1;exitDx=0;exitDy=0;entryX=0.5;entryY=0;entryDx=0;entryDy=0;" edge="1" parent="1" source="fs5cX9v2H0MNZOyjVege-65" target="fs5cX9v2H0MNZOyjVege-75">
          <mxGeometry relative="1" as="geometry" />
        </mxCell>
        <mxCell id="fs5cX9v2H0MNZOyjVege-65" value="核销优惠券，更新已有优惠券或者新发放优惠券的状态" style="whiteSpace=wrap;html=1;fillColor=#FFFFFF;rounded=0;" vertex="1" parent="1">
          <mxGeometry x="-207.51" y="1440" width="165" height="70" as="geometry" />
        </mxCell>
        <mxCell id="fs5cX9v2H0MNZOyjVege-74" style="edgeStyle=orthogonalEdgeStyle;rounded=0;orthogonalLoop=1;jettySize=auto;html=1;exitX=0.5;exitY=1;exitDx=0;exitDy=0;entryX=0.5;entryY=0;entryDx=0;entryDy=0;" edge="1" parent="1" source="fs5cX9v2H0MNZOyjVege-69" target="fs5cX9v2H0MNZOyjVege-73">
          <mxGeometry relative="1" as="geometry" />
        </mxCell>
        <mxCell id="fs5cX9v2H0MNZOyjVege-69" value="记录下单日志&lt;br&gt;dj_car_life_order_access_log插入记录" style="whiteSpace=wrap;html=1;fillColor=#FFFFFF;rounded=0;" vertex="1" parent="1">
          <mxGeometry x="-210" y="1660" width="173.12" height="60" as="geometry" />
        </mxCell>
        <mxCell id="fs5cX9v2H0MNZOyjVege-80" style="edgeStyle=orthogonalEdgeStyle;rounded=0;orthogonalLoop=1;jettySize=auto;html=1;" edge="1" parent="1" source="fs5cX9v2H0MNZOyjVege-73">
          <mxGeometry relative="1" as="geometry">
            <mxPoint x="-123.44000000000005" y="1830" as="targetPoint" />
          </mxGeometry>
        </mxCell>
        <mxCell id="fs5cX9v2H0MNZOyjVege-73" value="插入订单记录" style="whiteSpace=wrap;html=1;fillColor=#FFFFFF;rounded=0;" vertex="1" parent="1">
          <mxGeometry x="-210" y="1750" width="173.12" height="60" as="geometry" />
        </mxCell>
        <mxCell id="fs5cX9v2H0MNZOyjVege-78" value="是" style="edgeStyle=orthogonalEdgeStyle;rounded=0;orthogonalLoop=1;jettySize=auto;html=1;exitX=0.5;exitY=1;exitDx=0;exitDy=0;" edge="1" parent="1" source="fs5cX9v2H0MNZOyjVege-75" target="fs5cX9v2H0MNZOyjVege-69">
          <mxGeometry relative="1" as="geometry" />
        </mxCell>
        <mxCell id="fs5cX9v2H0MNZOyjVege-92" style="edgeStyle=orthogonalEdgeStyle;rounded=0;orthogonalLoop=1;jettySize=auto;html=1;" edge="1" parent="1" source="fs5cX9v2H0MNZOyjVege-75">
          <mxGeometry relative="1" as="geometry">
            <mxPoint x="-30" y="2040" as="targetPoint" />
            <Array as="points">
              <mxPoint x="340" y="1590" />
              <mxPoint x="340" y="2040" />
            </Array>
          </mxGeometry>
        </mxCell>
        <mxCell id="fs5cX9v2H0MNZOyjVege-94" value="否" style="edgeLabel;html=1;align=center;verticalAlign=middle;resizable=0;points=[];" vertex="1" connectable="0" parent="fs5cX9v2H0MNZOyjVege-92">
          <mxGeometry x="0.0519" relative="1" as="geometry">
            <mxPoint as="offset" />
          </mxGeometry>
        </mxCell>
        <mxCell id="fs5cX9v2H0MNZOyjVege-75" value="订单id为空？" style="rhombus;whiteSpace=wrap;html=1;fillColor=#FFFFFF;" vertex="1" parent="1">
          <mxGeometry x="-195" y="1555" width="140" height="70" as="geometry" />
        </mxCell>
        <mxCell id="fs5cX9v2H0MNZOyjVege-85" style="edgeStyle=orthogonalEdgeStyle;rounded=0;orthogonalLoop=1;jettySize=auto;html=1;exitX=0.5;exitY=1;exitDx=0;exitDy=0;entryX=0.5;entryY=0;entryDx=0;entryDy=0;" edge="1" parent="1" source="fs5cX9v2H0MNZOyjVege-81" target="fs5cX9v2H0MNZOyjVege-83">
          <mxGeometry relative="1" as="geometry" />
        </mxCell>
        <mxCell id="fs5cX9v2H0MNZOyjVege-81" value="更新订单日报数据&lt;br&gt;dj_car_life_order_day_report" style="whiteSpace=wrap;html=1;fillColor=#FFFFFF;rounded=0;" vertex="1" parent="1">
          <mxGeometry x="-210" y="1830" width="173.12" height="60" as="geometry" />
        </mxCell>
        <mxCell id="fs5cX9v2H0MNZOyjVege-88" style="edgeStyle=orthogonalEdgeStyle;rounded=0;orthogonalLoop=1;jettySize=auto;html=1;exitX=0.5;exitY=1;exitDx=0;exitDy=0;" edge="1" parent="1" source="fs5cX9v2H0MNZOyjVege-83">
          <mxGeometry relative="1" as="geometry">
            <mxPoint x="-121" y="2010" as="targetPoint" />
          </mxGeometry>
        </mxCell>
        <mxCell id="fs5cX9v2H0MNZOyjVege-83" value="更新员工业绩日报表&lt;br&gt;dj_car_life_user_day_report" style="whiteSpace=wrap;html=1;fillColor=#FFFFFF;rounded=0;" vertex="1" parent="1">
          <mxGeometry x="-207.51" y="1920" width="173.12" height="60" as="geometry" />
        </mxCell>
        <mxCell id="fs5cX9v2H0MNZOyjVege-90" style="edgeStyle=orthogonalEdgeStyle;rounded=0;orthogonalLoop=1;jettySize=auto;html=1;" edge="1" parent="1" source="fs5cX9v2H0MNZOyjVege-89">
          <mxGeometry relative="1" as="geometry">
            <mxPoint x="-120.95000000000027" y="2110" as="targetPoint" />
          </mxGeometry>
        </mxCell>
        <mxCell id="fs5cX9v2H0MNZOyjVege-89" value="记录用户下单操作&lt;br&gt;往dj_car_life_order_access_log表中插入数据" style="whiteSpace=wrap;html=1;fillColor=#FFFFFF;rounded=0;" vertex="1" parent="1">
          <mxGeometry x="-207.51" y="2010" width="173.12" height="60" as="geometry" />
        </mxCell>
        <mxCell id="fs5cX9v2H0MNZOyjVege-95" style="edgeStyle=orthogonalEdgeStyle;rounded=0;orthogonalLoop=1;jettySize=auto;html=1;exitX=0.5;exitY=1;exitDx=0;exitDy=0;" edge="1" parent="1" source="fs5cX9v2H0MNZOyjVege-91">
          <mxGeometry relative="1" as="geometry">
            <mxPoint x="-121" y="2210" as="targetPoint" />
          </mxGeometry>
        </mxCell>
        <mxCell id="fs5cX9v2H0MNZOyjVege-91" value="保存订单状态变更记录&lt;br&gt;dj_car_life_order_status_record表中插入记录" style="whiteSpace=wrap;html=1;fillColor=#FFFFFF;rounded=0;" vertex="1" parent="1">
          <mxGeometry x="-207.51" y="2110" width="173.12" height="60" as="geometry" />
        </mxCell>
        <mxCell id="fs5cX9v2H0MNZOyjVege-98" style="edgeStyle=orthogonalEdgeStyle;rounded=0;orthogonalLoop=1;jettySize=auto;html=1;" edge="1" parent="1" source="fs5cX9v2H0MNZOyjVege-96" target="fs5cX9v2H0MNZOyjVege-97">
          <mxGeometry relative="1" as="geometry" />
        </mxCell>
        <mxCell id="fs5cX9v2H0MNZOyjVege-96" value="插入子订单记录&lt;br&gt;dj_car_life_goods_sub_order" style="whiteSpace=wrap;html=1;fillColor=#FFFFFF;rounded=0;" vertex="1" parent="1">
          <mxGeometry x="-207.51" y="2210" width="173.12" height="60" as="geometry" />
        </mxCell>
        <mxCell id="fs5cX9v2H0MNZOyjVege-99" style="edgeStyle=orthogonalEdgeStyle;rounded=0;orthogonalLoop=1;jettySize=auto;html=1;exitX=0.5;exitY=1;exitDx=0;exitDy=0;" edge="1" parent="1" source="fs5cX9v2H0MNZOyjVege-97">
          <mxGeometry relative="1" as="geometry">
            <mxPoint x="-121" y="2400" as="targetPoint" />
          </mxGeometry>
        </mxCell>
        <mxCell id="fs5cX9v2H0MNZOyjVege-97" value="更新主订单信息" style="whiteSpace=wrap;html=1;fillColor=#FFFFFF;rounded=0;" vertex="1" parent="1">
          <mxGeometry x="-207.51" y="2300" width="173.12" height="60" as="geometry" />
        </mxCell>
        <mxCell id="fs5cX9v2H0MNZOyjVege-101" value="更新订单时，园区店、4s店id有变更，需要重新计算。旧的订单的统计数量减1，新的订单统计数量加1" style="whiteSpace=wrap;html=1;fillColor=#FFFFFF;rounded=0;" vertex="1" parent="1">
          <mxGeometry x="-211.87" y="2400" width="173.12" height="60" as="geometry" />
        </mxCell>
      </root>
    </mxGraphModel>
  </diagram>
</mxfile>
